<svg xmlns="http://www.w3.org/2000/svg" width="256" height="256" viewBox="0 0 256 256" role="img" aria-label="CWE Skills">
  <defs>
    <!-- 深蓝青背景渐变 -->
    <linearGradient id="bg" x1="0" y1="0" x2="1" y2="1">
      <stop offset="0" stop-color="#2f5573"/>
      <stop offset="1" stop-color="#1d3a4f"/>
    </linearGradient>
    <!-- 盾牌渐变 -->
    <linearGradient id="shield" x1="0" y1="0" x2="0" y2="1">
      <stop offset="0" stop-color="#6ba3c8"/>
      <stop offset="1" stop-color="#3c6c8f"/>
    </linearGradient>
    <!-- 准星外圈渐变 -->
    <linearGradient id="ring" x1="0" y1="0" x2="1" y2="1">
      <stop offset="0" stop-color="#f59e0b"/>
      <stop offset="1" stop-color="#d97706"/>
    </linearGradient>
  </defs>

  <!-- 圆角方形背景 -->
  <rect width="256" height="256" rx="56" fill="url(#bg)"/>

  <!-- 盾牌轮廓 -->
  <path d="M128 36 L204 66 L204 134 C204 180 170 210 128 222 C86 210 52 180 52 134 L52 66 Z"
        fill="url(#shield)" stroke="#a9d0e8" stroke-width="4"/>

  <!-- 中央瞄准准星：橙色波纹环 -->
  <circle cx="128" cy="116" r="38" fill="none" stroke="url(#ring)" stroke-width="8" opacity="0.9"/>
  <circle cx="128" cy="116" r="22" fill="none" stroke="#ffffff" stroke-width="3" opacity="0.5"/>
  <circle cx="128" cy="116" r="6" fill="url(#ring)"/>

  <!-- 四向准线 -->
  <line x1="128" y1="64" x2="128" y2="84" stroke="url(#ring)" stroke-width="8" stroke-linecap="round"/>
  <line x1="128" y1="148" x2="128" y2="168" stroke="url(#ring)" stroke-width="8" stroke-linecap="round"/>
  <line x1="76" y1="116" x2="96" y2="116" stroke="url(#ring)" stroke-width="8" stroke-linecap="round"/>
  <line x1="160" y1="116" x2="180" y2="116" stroke="url(#ring)" stroke-width="8" stroke-linecap="round"/>

  <!-- CWE 字样 -->
  <text x="128" y="204" text-anchor="middle" font-family="'Segoe UI',Helvetica,Arial,sans-serif"
        font-size="32" font-weight="800" fill="#ffffff" letter-spacing="3">CWE</text>
</svg>
